<?xml version="1.0" encoding="UTF-8" standalone="no"?>
<!-- Created with Inkscape (http://www.inkscape.org/) -->

<svg
   xmlns:dc="http://purl.org/dc/elements/1.1/"
   xmlns:cc="http://creativecommons.org/ns#"
   xmlns:rdf="http://www.w3.org/1999/02/22-rdf-syntax-ns#"
   xmlns:svg="http://www.w3.org/2000/svg"
   xmlns="http://www.w3.org/2000/svg"
   xmlns:sodipodi="http://sodipodi.sourceforge.net/DTD/sodipodi-0.dtd"
   xmlns:inkscape="http://www.inkscape.org/namespaces/inkscape"
   width="128"
   height="128"
   id="svg2993"
   version="1.1"
   inkscape:version="0.48.5 r10040"
   sodipodi:docname="JamJar.svg">
  <defs
     id="defs2995" />
  <sodipodi:namedview
     id="base"
     pagecolor="#ffffff"
     bordercolor="#666666"
     borderopacity="1.0"
     inkscape:pageopacity="0.0"
     inkscape:pageshadow="2"
     inkscape:zoom="3.098901"
     inkscape:cx="159.41606"
     inkscape:cy="82.811004"
     inkscape:current-layer="layer1"
     inkscape:document-units="px"
     showgrid="false"
     inkscape:window-width="1918"
     inkscape:window-height="1078"
     inkscape:window-x="0"
     inkscape:window-y="0"
     inkscape:window-maximized="0" />
  <metadata
     id="metadata2998">
    <rdf:RDF>
      <cc:Work
         rdf:about="">
        <dc:format>image/svg+xml</dc:format>
        <dc:type
           rdf:resource="http://purl.org/dc/dcmitype/StillImage" />
        <dc:title></dc:title>
      </cc:Work>
    </rdf:RDF>
  </metadata>
  <g
     id="layer1"
     inkscape:label="Layer 1"
     inkscape:groupmode="layer"
     transform="translate(0,-352)">
    <path
       sodipodi:type="arc"
       style="color:#000000;fill:none;stroke:#000000;stroke-width:10;stroke-linecap:round;stroke-linejoin:round;stroke-opacity:1;marker:none;visibility:visible;display:inline;overflow:visible;enable-background:accumulate"
       id="path3769"
       sodipodi:cx="318.17731"
       sodipodi:cy="314.78015"
       sodipodi:rx="92.290779"
       sodipodi:ry="36.141846"
       d="M 410.41088,316.05244 A 92.290779,36.141846 0 0 1 225.91764,313.84182"
       sodipodi:start="0.03520993"
       sodipodi:end="3.1675581"
       sodipodi:open="true"
       transform="matrix(0.46941491,0,0,0.47200303,-84.697184,306.86858)" />
    <path
       sodipodi:type="arc"
       style="color:#000000;fill:#a17c0e;fill-opacity:1;stroke:#000000;stroke-width:10;stroke-linecap:round;stroke-linejoin:round;stroke-opacity:1;marker:none;visibility:visible;display:inline;overflow:visible;enable-background:accumulate"
       id="path3769-6"
       sodipodi:cx="318.17731"
       sodipodi:cy="314.78015"
       sodipodi:rx="92.290779"
       sodipodi:ry="36.141846"
       d="m 271.08799,345.86356 a 92.290779,36.141846 0 1 1 0.73711,0.16945"
       sodipodi:start="2.1062459"
       sodipodi:end="8.3801699"
       sodipodi:open="true"
       transform="matrix(0.46941491,0,0,0.47200303,-84.697184,226.46659)" />
    <path
       style="fill:#c02e2b;fill-opacity:1;stroke:#000000;stroke-width:4.568295;stroke-linecap:round;stroke-linejoin:round;stroke-miterlimit:4;stroke-opacity:1;stroke-dasharray:none"
       d="m 21.37133,374.95143 0,79.89981"
       id="path3809"
       inkscape:connector-curvature="0" />
    <path
       style="fill:#c02e2b;fill-opacity:1;stroke:#000000;stroke-width:4.568295;stroke-linecap:round;stroke-linejoin:round;stroke-miterlimit:4;stroke-opacity:1;stroke-dasharray:none"
       d="m 108.0523,375.39368 0,79.89981"
       id="path3809-7"
       inkscape:connector-curvature="0" />
    <path
       sodipodi:type="arc"
       style="color:#000000;fill:none;stroke:#000000;stroke-width:5.82310438;stroke-linecap:round;stroke-linejoin:round;stroke-miterlimit:4;stroke-opacity:1;stroke-dasharray:none;marker:none;visibility:visible;display:inline;overflow:visible;enable-background:accumulate"
       id="path3769-5-6"
       sodipodi:cx="318.17731"
       sodipodi:cy="314.78015"
       sodipodi:rx="92.290779"
       sodipodi:ry="36.141846"
       d="M 410.41088,316.05244 A 92.290779,36.141846 0 0 1 225.91764,313.84182"
       sodipodi:start="0.03520993"
       sodipodi:end="3.1675581"
       sodipodi:open="true"
       transform="matrix(0.46941491,0,0,0.47200303,-85.686703,282.27162)" />
    <path
       sodipodi:type="arc"
       style="color:#000000;fill:none;stroke:#000000;stroke-width:5.82310438;stroke-linecap:round;stroke-linejoin:round;stroke-miterlimit:4;stroke-opacity:1;stroke-dasharray:none;marker:none;visibility:visible;display:inline;overflow:visible;enable-background:accumulate"
       id="path3769-5-2"
       sodipodi:cx="318.17731"
       sodipodi:cy="314.78015"
       sodipodi:rx="92.290779"
       sodipodi:ry="36.141846"
       d="M 410.41088,316.05244 A 92.290779,36.141846 0 0 1 225.91764,313.84182"
       sodipodi:start="0.03520993"
       sodipodi:end="3.1675581"
       sodipodi:open="true"
       transform="matrix(0.46941491,0,0,0.47200303,-85.686703,243.71655)" />
    <path
       sodipodi:type="arc"
       style="color:#000000;fill:none;stroke:#000000;stroke-width:10;stroke-linecap:round;stroke-linejoin:round;stroke-opacity:1;marker:none;visibility:visible;display:inline;overflow:visible;enable-background:accumulate"
       id="path3769-9"
       sodipodi:cx="318.17731"
       sodipodi:cy="314.78015"
       sodipodi:rx="92.290779"
       sodipodi:ry="36.141846"
       d="M 410.41088,316.05244 A 92.290779,36.141846 0 0 1 225.91764,313.84182"
       transform="matrix(0.46941491,0,0,0.47200303,-84.703661,225.73171)"
       sodipodi:open="true"
       sodipodi:start="0.03520993"
       sodipodi:end="3.1675581" />
    <path
       style="color:#000000;fill:#c02e2b;fill-opacity:1;stroke:#000000;stroke-width:1.76899946;stroke-linecap:round;stroke-linejoin:round;stroke-miterlimit:4;stroke-opacity:1;stroke-dasharray:none;marker:none;visibility:visible;display:inline;overflow:visible;enable-background:accumulate"
       d="m 56.002709,469.67226 c -13.95055,-1.46553 -24.048393,-4.65138 -29.0291,-9.15867 -3.123055,-2.8262 -3.089999,-2.69664 -3.20433,-12.56138 l -0.09844,-8.49306 1.424271,1.02243 c 11.45908,8.22608 38.633552,11.34144 59.506419,6.82202 8.851693,-1.9166 15.865391,-4.93722 19.875071,-8.55973 l 1.20551,-1.08911 0,8.67838 c 0,9.93354 -0.13883,10.8036 -2.07483,13.00299 -3.947734,4.48486 -12.689876,7.84041 -25.639501,9.84135 -2.707816,0.41841 -19.16356,0.78909 -21.965078,0.49478 z"
       id="path3911"
       inkscape:connector-curvature="0" />
    <path
       style="color:#000000;fill:#c02e2b;fill-opacity:1;fill-rule:nonzero;stroke:#000000;stroke-width:1.76899946;stroke-linecap:round;stroke-linejoin:round;stroke-miterlimit:4;stroke-opacity:1;stroke-dasharray:none;marker:none;visibility:visible;display:inline;overflow:visible;enable-background:accumulate"
       d="m 59.688126,407.75224 c -7.834498,-0.40537 -14.993414,-1.46614 -20.638328,-3.05805 -6.604243,-1.86245 -11.797807,-4.43916 -14.379263,-7.13407 l -0.964354,-1.00673 0.07986,-6.09596 0.07986,-6.09596 1.769,1.21755 c 5.735992,3.94787 15.669591,7.01844 27.12466,8.38447 5.017139,0.59829 17.283618,0.69347 22.259909,0.17271 12.417944,-1.29952 22.254305,-4.21899 28.40693,-8.43124 1.08165,-0.74051 2.04385,-1.3464 2.13823,-1.3464 0.0944,0 0.12258,1.95696 0.0626,4.3488 -0.13096,5.22939 -0.58956,6.57421 -3.02856,8.88091 -5.788873,5.47489 -17.824435,9.12191 -33.186215,10.05614 -4.637565,0.28203 -6.054074,0.29775 -9.724402,0.10783 z"
       id="path3913"
       inkscape:connector-curvature="0" />
    <path
       style="fill:none;stroke:#000000;stroke-width:4.18655586;stroke-linecap:round;stroke-linejoin:round;stroke-miterlimit:4;stroke-opacity:1;stroke-dasharray:none"
       d="m 47.602733,418.13094 0,18.11103 c -0.42047,3.37455 -1.049497,3.91187 -3.602617,3.15229 -7.54554,-2.24488 -5.344498,-5.81942 -5.700657,-8.34123"
       id="path3009"
       inkscape:connector-curvature="0"
       sodipodi:nodetypes="ccsc" />
    <path
       style="fill:none;stroke:#000000;stroke-width:3.6361959;stroke-linecap:round;stroke-linejoin:round;stroke-miterlimit:4;stroke-opacity:1;stroke-dasharray:none"
       d="m 56.55053,440.77183 c 0,0 -0.08894,-22.49662 6.133484,-22.49662 5.354855,0 5.916592,22.60508 5.916592,22.60508"
       id="path3779"
       inkscape:connector-curvature="0"
       sodipodi:nodetypes="csc" />
    <path
       style="fill:none;stroke:#000000;stroke-width:3.9276526;stroke-linecap:round;stroke-linejoin:round;stroke-miterlimit:4;stroke-opacity:1;stroke-dasharray:none"
       d="m 75.862742,440.91669 0,-24.24029 4.541641,10.28528 4.647254,-12.54936 0,24.13271"
       id="path3783"
       inkscape:connector-curvature="0"
       sodipodi:nodetypes="ccccc" />
    <path
       style="fill:none;stroke:#000000;stroke-width:4.18655586;stroke-linecap:round;stroke-linejoin:round;stroke-miterlimit:4;stroke-opacity:1;stroke-dasharray:none"
       d="m 38.7522,415.21272 c 3.668313,1.41217 7.24761,2.21418 13.253498,2.44335"
       id="path3785"
       inkscape:connector-curvature="0"
       sodipodi:nodetypes="cc" />
    <path
       style="fill:none;stroke:#000000;stroke-width:3.6361959;stroke-linecap:round;stroke-linejoin:round;stroke-miterlimit:4;stroke-opacity:1;stroke-dasharray:none"
       d="m 57.743421,430.97777 c 0,0 2.30048,1.18406 4.940593,1.18406 2.640105,0 4.419693,-1.09693 4.419693,-1.09693"
       id="path3787"
       inkscape:connector-curvature="0"
       sodipodi:nodetypes="csc" />
  </g>
</svg>
