<?xml version="1.0" encoding="UTF-8" standalone="no"?>
<!-- Created with Inkscape (http://www.inkscape.org/) -->

<svg
   xmlns:dc="http://purl.org/dc/elements/1.1/"
   xmlns:cc="http://creativecommons.org/ns#"
   xmlns:rdf="http://www.w3.org/1999/02/22-rdf-syntax-ns#"
   xmlns:svg="http://www.w3.org/2000/svg"
   xmlns="http://www.w3.org/2000/svg"
   xmlns:sodipodi="http://sodipodi.sourceforge.net/DTD/sodipodi-0.dtd"
   xmlns:inkscape="http://www.inkscape.org/namespaces/inkscape"
   width="16"
   height="16"
   id="svg2993"
   version="1.1"
   inkscape:version="0.48.5 r10040"
   sodipodi:docname="JamJar16x16.svg"
   inkscape:export-filename="/home/mike/dev/ts/jam-engine/assets/JamJar16x16.png"
   inkscape:export-xdpi="90"
   inkscape:export-ydpi="90">
  <defs
     id="defs2995" />
  <sodipodi:namedview
     id="base"
     pagecolor="#ffffff"
     bordercolor="#666666"
     borderopacity="1.0"
     inkscape:pageopacity="0.0"
     inkscape:pageshadow="2"
     inkscape:zoom="17.530032"
     inkscape:cx="9.3102642"
     inkscape:cy="7.0474632"
     inkscape:current-layer="layer1"
     inkscape:document-units="px"
     showgrid="false"
     inkscape:window-width="901"
     inkscape:window-height="538"
     inkscape:window-x="1017"
     inkscape:window-y="0"
     inkscape:window-maximized="0" />
  <metadata
     id="metadata2998">
    <rdf:RDF>
      <cc:Work
         rdf:about="">
        <dc:format>image/svg+xml</dc:format>
        <dc:type
           rdf:resource="http://purl.org/dc/dcmitype/StillImage" />
        <dc:title></dc:title>
      </cc:Work>
    </rdf:RDF>
  </metadata>
  <g
     id="layer1"
     inkscape:label="Layer 1"
     inkscape:groupmode="layer"
     transform="translate(0,-464)">
    <rect
       style="color:#000000;fill:#ffffff;fill-opacity:1;fill-rule:nonzero;stroke:none;stroke-width:0.64999998;marker:none;visibility:visible;display:inline;overflow:visible;enable-background:accumulate"
       id="rect5656"
       width="11.180813"
       height="7.3588004"
       x="2.5670233"
       y="5.1044121"
       transform="translate(0,464)" />
    <path
       sodipodi:type="arc"
       style="color:#000000;fill:none;stroke:#000000;stroke-width:10;stroke-linecap:round;stroke-linejoin:round;stroke-opacity:1;marker:none;visibility:visible;display:inline;overflow:visible;enable-background:accumulate"
       id="path3769"
       sodipodi:cx="318.17731"
       sodipodi:cy="314.78015"
       sodipodi:rx="92.290779"
       sodipodi:ry="36.141846"
       d="M 410.41088,316.05244 A 92.290779,36.141846 0 0 1 225.91764,313.84182"
       sodipodi:start="0.03520993"
       sodipodi:end="3.1675581"
       sodipodi:open="true"
       transform="matrix(0.06038805,0,0,0.06072099,-11.074264,458.09785)" />
    <path
       sodipodi:type="arc"
       style="color:#000000;fill:#a17c0e;fill-opacity:1;stroke:#000000;stroke-width:10;stroke-linecap:round;stroke-linejoin:round;stroke-opacity:1;marker:none;visibility:visible;display:inline;overflow:visible;enable-background:accumulate"
       id="path3769-6"
       sodipodi:cx="318.17731"
       sodipodi:cy="314.78015"
       sodipodi:rx="92.290779"
       sodipodi:ry="36.141846"
       d="m 271.08799,345.86356 a 92.290779,36.141846 0 1 1 0.73711,0.16945"
       sodipodi:start="2.1062459"
       sodipodi:end="8.3801699"
       sodipodi:open="true"
       transform="matrix(0.06038805,0,0,0.06072099,-11.074264,447.75451)" />
    <path
       style="fill:#c02e2b;fill-opacity:1;stroke:#000000;stroke-width:0.58768988;stroke-linecap:round;stroke-linejoin:round;stroke-miterlimit:4;stroke-opacity:1;stroke-dasharray:none"
       d="m 2.5709576,466.8564 0,10.27873"
       id="path3809"
       inkscape:connector-curvature="0" />
    <path
       style="fill:#c02e2b;fill-opacity:1;stroke:#000000;stroke-width:0.58768988;stroke-linecap:round;stroke-linejoin:round;stroke-miterlimit:4;stroke-opacity:1;stroke-dasharray:none"
       d="m 13.722061,466.91329 0,10.27874"
       id="path3809-7"
       inkscape:connector-curvature="0" />
    <path
       sodipodi:type="arc"
       style="color:#000000;fill:none;stroke:#000000;stroke-width:5.82310438;stroke-linecap:round;stroke-linejoin:round;stroke-miterlimit:4;stroke-opacity:1;stroke-dasharray:none;marker:none;visibility:visible;display:inline;overflow:visible;enable-background:accumulate"
       id="path3769-5-6"
       sodipodi:cx="318.17731"
       sodipodi:cy="314.78015"
       sodipodi:rx="92.290779"
       sodipodi:ry="36.141846"
       d="M 410.41088,316.05244 A 92.290779,36.141846 0 0 1 225.91764,313.84182"
       sodipodi:start="0.03520993"
       sodipodi:end="3.1675581"
       sodipodi:open="true"
       transform="matrix(0.06038805,0,0,0.06072099,-11.201561,454.93357)" />
    <path
       sodipodi:type="arc"
       style="color:#000000;fill:none;stroke:#000000;stroke-width:5.82310438;stroke-linecap:round;stroke-linejoin:round;stroke-miterlimit:4;stroke-opacity:1;stroke-dasharray:none;marker:none;visibility:visible;display:inline;overflow:visible;enable-background:accumulate"
       id="path3769-5-2"
       sodipodi:cx="318.17731"
       sodipodi:cy="314.78015"
       sodipodi:rx="92.290779"
       sodipodi:ry="36.141846"
       d="M 410.41088,316.05244 A 92.290779,36.141846 0 0 1 225.91764,313.84182"
       sodipodi:start="0.03520993"
       sodipodi:end="3.1675581"
       sodipodi:open="true"
       transform="matrix(0.06038805,0,0,0.06072099,-11.201561,449.97364)" />
    <path
       sodipodi:type="arc"
       style="color:#000000;fill:none;stroke:#000000;stroke-width:10;stroke-linecap:round;stroke-linejoin:round;stroke-opacity:1;marker:none;visibility:visible;display:inline;overflow:visible;enable-background:accumulate"
       id="path3769-9"
       sodipodi:cx="318.17731"
       sodipodi:cy="314.78015"
       sodipodi:rx="92.290779"
       sodipodi:ry="36.141846"
       d="M 410.41088,316.05244 A 92.290779,36.141846 0 0 1 225.91764,313.84182"
       transform="matrix(0.06038805,0,0,0.06072099,-11.075096,447.65997)"
       sodipodi:open="true"
       sodipodi:start="0.03520993"
       sodipodi:end="3.1675581" />
    <path
       style="color:#000000;fill:#c02e2b;fill-opacity:1;stroke:#000000;stroke-width:0.22757356;stroke-linecap:round;stroke-linejoin:round;stroke-miterlimit:4;stroke-opacity:1;stroke-dasharray:none;marker:none;visibility:visible;display:inline;overflow:visible;enable-background:accumulate"
       d="m 7.0261233,479.04179 c -1.7946734,-0.18853 -3.0937139,-0.59838 -3.7344586,-1.17822 -0.4017665,-0.36358 -0.397514,-0.34691 -0.4122221,-1.61596 l -0.012664,-1.0926 0.1832258,0.13154 c 1.4741572,1.05824 4.9700265,1.45902 7.6552236,0.87762 1.138729,-0.24656 2.041009,-0.63516 2.556836,-1.10117 l 0.155083,-0.14012 0,1.11644 c 0,1.2779 -0.01786,1.38984 -0.266917,1.67277 -0.507858,0.57696 -1.632494,1.00863 -3.2984029,1.26604 -0.3483479,0.0538 -2.4653028,0.10157 -2.825705,0.0636 z"
       id="path3911"
       inkscape:connector-curvature="0" />
    <path
       style="color:#000000;fill:#c02e2b;fill-opacity:1;fill-rule:nonzero;stroke:#000000;stroke-width:0.22757356;stroke-linecap:round;stroke-linejoin:round;stroke-miterlimit:4;stroke-opacity:1;stroke-dasharray:none;marker:none;visibility:visible;display:inline;overflow:visible;enable-background:accumulate"
       d="M 7.500235,471.07607 C 6.4923633,471.02397 5.571402,470.88745 4.8452101,470.68266 3.995605,470.44306 3.3274772,470.11159 2.995385,469.7649 l -0.1240597,-0.12951 0.01027,-0.78422 0.01027,-0.78422 0.2275737,0.15664 c 0.7379086,0.50787 2.0158199,0.90289 3.4894612,1.07862 0.6454316,0.0769 2.223457,0.0893 2.8636337,0.0222 1.5975101,-0.16717 2.8629141,-0.54275 3.6544191,-1.08463 0.13915,-0.0953 0.262933,-0.17321 0.275074,-0.17321 0.01214,0 0.01577,0.25176 0.0081,0.55945 -0.01685,0.67275 -0.07585,0.84575 -0.389609,1.14249 -0.744713,0.70432 -2.293032,1.17349 -4.2692536,1.29368 -0.5966011,0.0362 -0.7788284,0.0383 -1.2509991,0.0139 z"
       id="path3913"
       inkscape:connector-curvature="0" />
    <path
       sodipodi:nodetypes="csccc"
       inkscape:connector-curvature="0"
       id="path4175"
       d="m 3.5226944,475.84213 c 0,0 -0.025899,1.71065 0.028836,1.83951 0.072091,0.1697 0.6175068,0.4357 0.6175068,0.4357 l -0.03369,-1.96882 c 0,0 -0.5520961,-0.22649 -0.6126529,-0.30639 z"
       style="fill:#ffffff;fill-opacity:1;stroke:none" />
    <path
       sodipodi:nodetypes="cscccc"
       inkscape:connector-curvature="0"
       id="path4177"
       d="m 3.5609479,468.63583 c 0,0 -0.021133,1.21514 0.014544,1.25823 0.1175925,0.14202 0.5603319,0.29753 0.5603319,0.29753 l -0.0051,-1.24937 c 0,0 -0.5330375,-0.25031 -0.5697714,-0.30639 z"
       style="fill:#ffffff;fill-opacity:1;stroke:none" />
  </g>
</svg>
