<?xml version="1.0" encoding="UTF-8" standalone="no"?>
<!-- Created with Inkscape (http://www.inkscape.org/) -->

<svg
   xmlns:dc="http://purl.org/dc/elements/1.1/"
   xmlns:cc="http://creativecommons.org/ns#"
   xmlns:rdf="http://www.w3.org/1999/02/22-rdf-syntax-ns#"
   xmlns:svg="http://www.w3.org/2000/svg"
   xmlns="http://www.w3.org/2000/svg"
   xmlns:sodipodi="http://sodipodi.sourceforge.net/DTD/sodipodi-0.dtd"
   xmlns:inkscape="http://www.inkscape.org/namespaces/inkscape"
   width="640px"
   height="480px"
   id="svg2993"
   version="1.1"
   inkscape:version="0.48.5 r10040"
   sodipodi:docname="MadeWithJam.svg">
  <defs
     id="defs2995" />
  <sodipodi:namedview
     id="base"
     pagecolor="#ffffff"
     bordercolor="#666666"
     borderopacity="1.0"
     inkscape:pageopacity="0.0"
     inkscape:pageshadow="2"
     inkscape:zoom="1.5494505"
     inkscape:cx="276.88367"
     inkscape:cy="157.97236"
     inkscape:current-layer="layer1"
     inkscape:document-units="px"
     showgrid="false"
     inkscape:window-width="1918"
     inkscape:window-height="1078"
     inkscape:window-x="0"
     inkscape:window-y="0"
     inkscape:window-maximized="0" />
  <metadata
     id="metadata2998">
    <rdf:RDF>
      <cc:Work
         rdf:about="">
        <dc:format>image/svg+xml</dc:format>
        <dc:type
           rdf:resource="http://purl.org/dc/dcmitype/StillImage" />
        <dc:title></dc:title>
      </cc:Work>
    </rdf:RDF>
  </metadata>
  <g
     id="layer1"
     inkscape:label="Layer 1"
     inkscape:groupmode="layer">
    <path
       style="fill:#c02e2b;fill-opacity:1;stroke:#000000;stroke-width:5;stroke-linecap:round;stroke-linejoin:round;stroke-miterlimit:4;stroke-opacity:1;stroke-dasharray:none"
       d="m 232.98582,263.14893 c 0,0 -30.12644,0.5974 -40.01419,11.61703 -14.12335,14.8622 5.97217,67.32082 36.14185,61.31205 22.73054,-7.46053 81.08166,0.089 114.23405,10.97163 18.07092,10.32624 42.59574,21.94326 65.82979,21.94326 23.23404,0 73.57447,-5.16312 65.82979,-19.3617 -7.74468,-14.19858 -35.60869,-6.73452 -18.71632,-20.00709 9.03546,-7.09929 24.03984,1.71003 23.23404,-14.19858 -0.88516,-17.47545 -68.41134,-10.32625 -76.15602,-27.75178"
       id="path3858"
       inkscape:connector-curvature="0"
       sodipodi:nodetypes="ccccssssc" />
    <path
       sodipodi:type="arc"
       style="color:#000000;fill:none;stroke:#000000;stroke-width:10;stroke-linecap:round;stroke-linejoin:round;stroke-opacity:1;marker:none;visibility:visible;display:inline;overflow:visible;enable-background:accumulate"
       id="path3769"
       sodipodi:cx="318.17731"
       sodipodi:cy="314.78015"
       sodipodi:rx="92.290779"
       sodipodi:ry="36.141846"
       d="M 410.41088,316.05244 A 92.290779,36.141846 0 0 1 225.91764,313.84182"
       sodipodi:start="0.03520993"
       sodipodi:end="3.1675581"
       sodipodi:open="true"
       transform="matrix(1.0275494,0,0,1.0332148,-18.55991,-39.803727)" />
    <path
       sodipodi:type="arc"
       style="color:#000000;fill:#a17c0e;fill-opacity:1;stroke:#000000;stroke-width:10;stroke-linecap:round;stroke-linejoin:round;stroke-opacity:1;marker:none;visibility:visible;display:inline;overflow:visible;enable-background:accumulate"
       id="path3769-6"
       sodipodi:cx="318.17731"
       sodipodi:cy="314.78015"
       sodipodi:rx="92.290779"
       sodipodi:ry="36.141846"
       d="m 271.08799,345.86356 a 92.290779,36.141846 0 1 1 0.73711,0.16945"
       sodipodi:start="2.1062459"
       sodipodi:end="8.3801699"
       sodipodi:open="true"
       transform="matrix(1.0275494,0,0,1.0332148,-18.55991,-215.80372)" />
    <path
       style="fill:#c02e2b;fill-opacity:1;stroke:#000000;stroke-width:10;stroke-linecap:round;stroke-linejoin:round;stroke-miterlimit:4;stroke-opacity:1;stroke-dasharray:none"
       d="m 213.62412,109.22965 0,174.90071"
       id="path3809"
       inkscape:connector-curvature="0" />
    <path
       style="fill:#c02e2b;fill-opacity:1;stroke:#000000;stroke-width:10;stroke-linecap:round;stroke-linejoin:round;stroke-miterlimit:4;stroke-opacity:1;stroke-dasharray:none"
       d="m 403.36879,110.19773 0,174.90071"
       id="path3809-7"
       inkscape:connector-curvature="0" />
    <path
       sodipodi:type="arc"
       style="color:#000000;fill:none;stroke:#000000;stroke-width:5.82310438;stroke-linecap:round;stroke-linejoin:round;stroke-miterlimit:4;stroke-opacity:1;stroke-dasharray:none;marker:none;visibility:visible;display:inline;overflow:visible;enable-background:accumulate"
       id="path3769-5-6"
       sodipodi:cx="318.17731"
       sodipodi:cy="314.78015"
       sodipodi:rx="92.290779"
       sodipodi:ry="36.141846"
       d="M 410.41088,316.05244 A 92.290779,36.141846 0 0 1 225.91764,313.84182"
       sodipodi:start="0.03520993"
       sodipodi:end="3.1675581"
       sodipodi:open="true"
       transform="matrix(1.0275494,0,0,1.0332148,-20.725965,-93.646474)" />
    <path
       sodipodi:type="arc"
       style="color:#000000;fill:none;stroke:#000000;stroke-width:5.82310438;stroke-linecap:round;stroke-linejoin:round;stroke-miterlimit:4;stroke-opacity:1;stroke-dasharray:none;marker:none;visibility:visible;display:inline;overflow:visible;enable-background:accumulate"
       id="path3769-5-2"
       sodipodi:cx="318.17731"
       sodipodi:cy="314.78015"
       sodipodi:rx="92.290779"
       sodipodi:ry="36.141846"
       d="M 410.41088,316.05244 A 92.290779,36.141846 0 0 1 225.91764,313.84182"
       sodipodi:start="0.03520993"
       sodipodi:end="3.1675581"
       sodipodi:open="true"
       transform="matrix(1.0275494,0,0,1.0332148,-20.725965,-178.04354)" />
    <path
       sodipodi:type="arc"
       style="color:#000000;fill:none;stroke:#000000;stroke-width:10;stroke-linecap:round;stroke-linejoin:round;stroke-opacity:1;marker:none;visibility:visible;display:inline;overflow:visible;enable-background:accumulate"
       id="path3769-9"
       sodipodi:cx="318.17731"
       sodipodi:cy="314.78015"
       sodipodi:rx="92.290779"
       sodipodi:ry="36.141846"
       d="M 410.41088,316.05244 A 92.290779,36.141846 0 0 1 225.91764,313.84182"
       transform="matrix(1.0275494,0,0,1.0332148,-18.574074,-217.41234)"
       sodipodi:open="true"
       sodipodi:start="0.03520993"
       sodipodi:end="3.1675581" />
    <path
       style="color:#000000;fill:#c02e2b;fill-opacity:1;stroke:#000000;stroke-width:3.87234044;stroke-linecap:round;stroke-linejoin:round;stroke-miterlimit:4;stroke-opacity:1;stroke-dasharray:none;marker:none;visibility:visible;display:inline;overflow:visible;enable-background:accumulate"
       d="m 289.43222,316.57359 c -30.53776,-3.20803 -52.64194,-10.1819 -63.54471,-20.04834 -6.83637,-6.18656 -6.76401,-5.90293 -7.01428,-27.49684 l -0.21547,-18.59134 3.11773,2.23811 c 25.08393,18.00689 84.56886,24.82643 130.25957,14.93339 19.37636,-4.19541 34.72934,-10.80758 43.50654,-18.73724 l 2.63885,-2.38405 0,18.99697 c 0,21.74452 -0.3039,23.64906 -4.5418,28.46356 -8.64158,9.81735 -27.77814,17.16265 -56.12487,21.54271 -5.92741,0.91589 -41.94904,1.72731 -48.08156,1.08307 z"
       id="path3911"
       inkscape:connector-curvature="0" />
    <path
       style="color:#000000;fill:#c02e2b;fill-opacity:1;fill-rule:nonzero;stroke:#000000;stroke-width:3.87234044;stroke-linecap:round;stroke-linejoin:round;stroke-miterlimit:4;stroke-opacity:1;stroke-dasharray:none;marker:none;visibility:visible;display:inline;overflow:visible;enable-background:accumulate"
       d="m 297.4996,181.03064 c -17.14972,-0.88736 -32.82059,-3.20937 -45.17731,-6.69407 -14.45669,-4.07691 -25.8254,-9.71734 -31.47621,-15.61648 l -2.11097,-2.20373 0.1748,-13.34405 0.17479,-13.34406 3.87234,2.6652 c 12.55609,8.6419 34.30074,15.36337 59.37589,18.35361 10.98252,1.30968 37.83385,1.51801 48.72695,0.37806 27.18288,-2.84466 48.71467,-9.23534 62.18277,-18.45596 2.36772,-1.62101 4.47398,-2.94729 4.68057,-2.94729 0.20659,0 0.26834,4.28378 0.13724,9.51951 -0.28665,11.44716 -1.29054,14.39097 -6.62951,19.44034 -12.67185,11.98451 -39.01769,19.96786 -72.64463,22.01288 -10.15163,0.61737 -13.25237,0.65176 -21.28672,0.23604 z"
       id="path3913"
       inkscape:connector-curvature="0" />
    <path
       style="fill:none;stroke:#000000;stroke-width:9.16437244;stroke-linecap:round;stroke-linejoin:round;stroke-miterlimit:4;stroke-opacity:1;stroke-dasharray:none"
       d="m 271.04467,203.74961 0,39.64506 c -0.92041,7.38689 -2.29735,8.56308 -7.88613,6.90036 -16.51719,-4.91404 -11.69911,-12.7387 -12.47874,-18.25896"
       id="path3009"
       inkscape:connector-curvature="0"
       sodipodi:nodetypes="ccsc" />
    <path
       style="fill:none;stroke:#000000;stroke-width:7.9596343;stroke-linecap:round;stroke-linejoin:round;stroke-miterlimit:4;stroke-opacity:1;stroke-dasharray:none"
       d="m 290.6314,253.31055 c 0,0 -0.1947,-49.24512 13.4262,-49.24512 11.72178,0 12.95142,49.48251 12.95142,49.48251"
       id="path3779"
       inkscape:connector-curvature="0"
       sodipodi:nodetypes="csc" />
    <path
       style="fill:none;stroke:#000000;stroke-width:8.59763241;stroke-linecap:round;stroke-linejoin:round;stroke-miterlimit:4;stroke-opacity:1;stroke-dasharray:none"
       d="m 332.90584,253.62763 0,-53.062 9.94165,22.51449 10.17284,-27.47056 0,52.8265"
       id="path3783"
       inkscape:connector-curvature="0"
       sodipodi:nodetypes="ccccc" />
    <path
       style="fill:none;stroke:#000000;stroke-width:9.16437244;stroke-linecap:round;stroke-linejoin:round;stroke-miterlimit:4;stroke-opacity:1;stroke-dasharray:none"
       d="m 251.67085,197.36165 c 8.02994,3.09121 15.86502,4.84683 29.01191,5.34846"
       id="path3785"
       inkscape:connector-curvature="0"
       sodipodi:nodetypes="cc" />
    <path
       style="fill:none;stroke:#000000;stroke-width:7.9596343;stroke-linecap:round;stroke-linejoin:round;stroke-miterlimit:4;stroke-opacity:1;stroke-dasharray:none"
       d="m 293.24264,231.87134 c 0,0 5.03575,2.59189 10.81496,2.59189 5.77919,0 9.67471,-2.40118 9.67471,-2.40118"
       id="path3787"
       inkscape:connector-curvature="0"
       sodipodi:nodetypes="csc" />
    <flowRoot
       xml:space="preserve"
       id="flowRoot3808"
       style="font-size:64px;font-style:normal;font-variant:normal;font-weight:normal;font-stretch:normal;line-height:125%;letter-spacing:0px;word-spacing:0px;fill:#000000;fill-opacity:1;stroke:none;font-family:FreeMono;-inkscape-font-specification:FreeMono"
       transform="translate(2.5815607,-25.815604)"><flowRegion
         id="flowRegion3810"><rect
           id="rect3812"
           width="526.63831"
           height="74.86525"
           x="64.539009"
           y="384.48227"
           style="font-size:64px" /></flowRegion><flowPara
         id="flowPara3814">Made with Jam</flowPara></flowRoot>  </g>
</svg>
